HIERARCHY
ROOT Hips
{
  OFFSET 267.745 86.9975 -272.335
  CHANNELS 6 Xposition Yposition Zposition Zrotation Xrotation Yrotation
  JOINT LeftUpLeg
  {
    OFFSET 8.64259 1.95398 -2.38835
    CHANNELS 3 Zrotation Xrotation Yrotation
    JOINT LeftLeg
    {
      OFFSET 43.7702 0 0
      CHANNELS 3 Zrotation Xrotation Yrotation
      JOINT LeftFoot
      {
        OFFSET 40.6238 0 0
        CHANNELS 3 Zrotation Xrotation Yrotation
        JOINT LeftToeBase
        {
          OFFSET 12.7242 0 0
          CHANNELS 3 Zrotation Xrotation Yrotation
          End Site
          {
            OFFSET 0 0 0
          }
        }
      }
    }
  }
  JOINT RightUpLeg
  {
    OFFSET -8.2249 1.95398 -2.59336
    CHANNELS 3 Zrotation Xrotation Yrotation
    JOINT RightLeg
    {
      OFFSET 43.5653 0 0
      CHANNELS 3 Zrotation Xrotation Yrotation
      JOINT RightFoot
      {
        OFFSET 40.6238 0 0
        CHANNELS 3 Zrotation Xrotation Yrotation
        JOINT RightToeBase
        {
          OFFSET 12.7242 0 0
          CHANNELS 3 Zrotation Xrotation Yrotation
          End Site
          {
            OFFSET 0 0 0
          }
        }
      }
    }
  }
  JOINT Spine
  {
    OFFSET 0.165834 0.87714 6.61349
    CHANNELS 3 Zrotation Xrotation Yrotation
    JOINT Spine1
    {
      OFFSET 7.38963 1.71661e-005 0
      CHANNELS 3 Zrotation Xrotation Yrotation
      JOINT Spine2
      {
        OFFSET 11.9445 1.14441e-005 0
        CHANNELS 3 Zrotation Xrotation Yrotation
        JOINT Spine3
        {
          OFFSET 14.7254 4.19617e-005 0
          CHANNELS 3 Zrotation Xrotation Yrotation
          JOINT Spine4
          {
            OFFSET 10.9679 0 0
            CHANNELS 3 Zrotation Xrotation Yrotation
            JOINT RightShoulder
            {
              OFFSET 2.46616 -1.6653 3.69651
              CHANNELS 3 Zrotation Xrotation Yrotation
              JOINT RightArm
              {
                OFFSET 13.0012 0 0
                CHANNELS 3 Zrotation Xrotation Yrotation
                JOINT RightForeArm
                {
                  OFFSET 28.7848 1.52588e-005 0
                  CHANNELS 3 Zrotation Xrotation Yrotation
                  JOINT RightHand
                  {
                    OFFSET 26.5688 1.52588e-005 0
                    CHANNELS 3 Zrotation Xrotation Yrotation
                    End Site
                    {
                      OFFSET 0 0 0
                    }
                  }
                }
              }
            }
            JOINT LeftShoulder
            {
              OFFSET 2.38034 -1.29275 -3.7523
              CHANNELS 3 Zrotation Xrotation Yrotation
              JOINT LeftArm
              {
                OFFSET 16.3182 6.10352e-005 0
                CHANNELS 3 Zrotation Xrotation Yrotation
                JOINT LeftForeArm
                {
                  OFFSET 27.0901 0 0
                  CHANNELS 3 Zrotation Xrotation Yrotation
                  JOINT LeftHand
                  {
                    OFFSET 24.5451 1.52588e-005 0
                    CHANNELS 3 Zrotation Xrotation Yrotation
                    End Site
                    {
                      OFFSET 0 0 0
                    }
                  }
                }
              }
            }
            JOINT Neck
            {
              OFFSET 5.0226 -0.0266342 0
              CHANNELS 3 Zrotation Xrotation Yrotation
              JOINT Head
              {
                OFFSET 6.69364 2.86102e-005 0
                CHANNELS 3 Zrotation Xrotation Yrotation
                End Site
                {
                  OFFSET 0 0 0
                }
              }
            }
          }
        }
      }
    }
  }
}
MOTION
Frames:	10
Frame Time:	0.0416667
-309.402 94.8185 26.7312 93.6775 2.62739 91.2493 -174.898 -1.39515 90.4034 -8.00145 12.6609 2.40832 58.714 2.65897 10.2857 38.0024 -1.08726 1.52576 174.494 3.70533 88.2536 -18.3743 8.73544 0.0193537 63.0239 6.45615 17.8246 24.6435 0.614218 3.26575 -0.287184 7.27124 -90.2003 12.3305 -0.665795 -0.324585 0.659678 -0.679409 -0.294976 -21.8761 -0.537439 -0.509677 -1.86347 -0.537443 -0.509678 103.254 -50.6959 -80.4833 32.5923 -11.7474 -5.53471 -4.67213 -24.6914 -20.3251 -16.9596 -1.35647 4.14709 -79.8045 -49.1102 93.8554 -36.4792 0.65519 -14.47 10.1337 42.0355 -16.6065 5.915 -0.00137918 -3.13934 -5.61969 0.562906 -13.7068 -13.8871 -0.0380289 21.1844 
-309.382 94.806 26.7998 93.3185 2.12753 91.5546 -174.581 -1.08559 90.7743 -7.91299 12.6558 2.28655 58.7153 2.59699 10.2636 38.0827 -1.10302 1.74946 174.852 3.84503 88.6794 -17.784 8.68291 -0.132011 62.8446 6.36462 17.9162 24.573 0.684729 2.8386 -0.228968 7.21921 -90.2454 12.4343 -0.571608 -0.424521 0.763376 -0.589725 -0.398959 -21.7718 -0.417595 -0.576689 -1.75918 -0.417608 -0.576689 103.184 -50.5359 -80.5891 32.8029 -11.5711 -5.41624 -3.64845 -23.1373 -19.1827 -16.5745 -1.03543 2.09673 -79.9559 -49.4591 93.6368 -35.8495 1.24083 -14.4913 8.89796 40.9501 -15.7509 6.93009 0.265162 0.0219775 4.5579 0.984745 -9.94946 -29.2132 -0.0176207 12.1556 
-309.354 94.8098 26.8353 93.3717 1.88795 91.5516 -174.526 -1.20578 90.7993 -7.93947 13.0835 2.25322 58.7309 2.71145 10.6602 38.2168 -1.13241 2.24991 174.9 3.96331 88.7013 -18.1361 8.60891 -0.188622 62.7921 6.61579 18.2251 24.3363 0.692364 3.1848 -0.22284 7.229 -90.2512 12.4147 -0.562039 -0.437456 0.743839 -0.580774 -0.412302 -21.7913 -0.40459 -0.586144 -1.77865 -0.404579 -0.586148 103.029 -50.3965 -80.8262 32.8374 -11.5843 -5.48338 -3.62839 -23.2345 -19.136 -16.7316 -1.07446 2.29729 -79.7208 -49.6118 94.0019 -35.7241 1.27338 -14.5487 8.85097 40.9416 -15.7266 7.08108 0.276484 0.0671133 2.9748 1.15736 -10.1255 -27.0525 0.141039 13.1433 
-309.305 94.8214 26.871 93.3061 1.86686 91.5357 -174.494 -1.21035 90.8328 -7.91043 13.5115 2.24608 58.7352 2.69806 10.7964 38.2088 -1.14638 2.67241 174.926 3.9482 88.7294 -18.0317 8.79764 -0.22027 62.9273 6.48452 18.1509 24.1842 0.707536 3.32715 -0.20969 7.21986 -90.2528 12.433 -0.536802 -0.443333 0.762073 -0.555828 -0.419277 -21.773 -0.378739 -0.584165 -1.76034 -0.378768 -0.584177 103.226 -50.3411 -80.5193 32.8135 -11.5584 -5.47994 -3.6508 -23.1326 -19.2312 -16.7659 -1.07856 2.30987 -79.6267 -49.5612 94.1445 -35.6495 1.54116 -14.6479 8.60397 40.9415 -15.5603 7.00426 0.273072 0.0619372 2.2461 1.53597 -9.69905 -25.528 0.595805 12.9995 
-309.316 94.796 26.8298 93.5441 2.44437 91.2393 -174.951 -1.42719 90.408 -8.02374 13.8348 2.47999 58.7512 2.8132 11.0842 38.2736 -1.16352 3.02011 174.531 3.74397 88.2779 -18.2034 8.8972 0.00145211 63.6517 6.21542 18.0746 23.1811 0.938454 3.25289 -0.329116 7.288 -90.2753 12.2963 -0.784494 -0.4612 0.625501 -0.80404 -0.426237 -21.9103 -0.609611 -0.675644 -1.89761 -0.609628 -0.675659 102.956 -48.977 -80.9165 33.8278 -11.603 -5.83403 -3.94661 -23.8962 -19.1985 -16.6964 -1.07941 2.34818 -78.9215 -50.3814 95.2392 -34.9819 1.98375 -14.9957 8.43712 40.6571 -15.7368 6.70672 0.244371 -0.153715 3.76207 1.91232 -7.64139 -26.9668 0.836228 11.6933 
-309.304 94.8004 26.9362 93.2387 2.02023 91.4519 -174.665 -1.08159 90.7041 -7.9304 12.8586 2.3293 58.6142 2.59289 10.6026 38.4452 -1.1435 1.93993 174.625 3.98505 88.5136 -17.9883 8.5027 0.0938568 62.9163 6.53374 18.1198 24.3823 0.756376 2.55482 -0.262587 7.26255 -90.2825 12.3472 -0.655969 -0.489724 0.67635 -0.676906 -0.460379 -21.8589 -0.478463 -0.664225 -1.84621 -0.478467 -0.664231 102.88 -49.3186 -81.0426 33.5543 -11.6638 -5.74111 -4.00512 -23.6444 -19.3176 -16.0747 -1.01279 2.16245 -79.1004 -50.1821 94.9637 -34.9856 2.12288 -15.1227 8.38041 41.0434 -15.6099 7.35048 0.340749 0.696913 3.80163 1.84147 -7.96034 -26.8391 0.817226 11.7926 
-309.295 94.8177 26.9761 93.1593 2.15714 91.4402 -174.669 -0.952287 90.722 -7.88776 11.9597 2.33696 58.6403 2.43096 9.74422 38.1196 -1.09593 1.42229 174.546 4.10403 88.4916 -18.1591 8.28154 0.207277 62.0787 7.32954 19.1145 26.1709 0.606692 0.409568 -0.270398 7.26487 -90.254 12.3429 -0.657865 -0.432591 0.672042 -0.676278 -0.403223 -21.8634 -0.49742 -0.610303 -1.85073 -0.497451 -0.610313 103.057 -49.6422 -80.7697 33.4549 -11.7089 -5.86533 -3.96036 -23.6132 -19.3773 -16.159 -1.03892 2.31279 -79.5453 -49.6812 94.2715 -35.2007 2.02384 -14.8377 8.78431 41.3374 -16.0049 6.11008 0.237731 0.04585 4.22122 1.72711 -8.91528 -27.5295 0.689491 12.4476 
-309.289 94.8297 27.0199 93.1058 2.02094 91.5503 -174.555 -0.886599 90.8757 -7.82298 11.5901 2.32152 58.5918 2.28606 9.43703 38.2328 -1.08606 0.824415 174.519 4.09633 88.6037 -18.046 7.91617 0.321643 62.1891 6.95641 18.2919 26.0694 0.605026 0.644051 -0.272294 7.27593 -90.2743 12.3205 -0.671223 -0.471911 0.64964 -0.691338 -0.441914 -21.8857 -0.498356 -0.651821 -1.87302 -0.498367 -0.651822 102.896 -49.6799 -81.023 33.3505 -11.7271 -5.76052 -4.13044 -23.6537 -19.6265 -16.022 -1.05048 2.46511 -79.2267 -49.873 94.764 -34.8479 2.60307 -15.0135 7.83467 40.1885 -15.3427 6.96571 0.221981 -0.533152 3.73726 1.76919 -8.57668 -26.4668 0.792047 12.263 
-309.314 94.8602 26.9856 93.1904 2.45954 91.3148 -174.818 -0.934541 90.5862 -7.90332 11.961 2.40313 58.608 2.37537 9.609 38.017 -1.07901 1.25375 174.208 3.90568 88.2713 -17.8645 7.93664 0.497449 63.0229 6.18628 17.0161 24.1466 0.640803 3.89426 -0.262085 7.33238 -90.186 12.2083 -0.609043 -0.303257 0.537508 -0.621756 -0.276172 -21.9982 -0.489744 -0.472276 -1.98552 -0.48972 -0.472276 103.407 -50.5112 -80.2419 33.13 -11.6052 -5.75388 -4.26048 -23.2702 -20.0243 -16.0036 -1.04195 2.41032 -80.377 -48.2177 92.933 -36.4248 2.06662 -14.729 8.93141 40.8682 -16.0164 7.16326 0.333145 0.706548 4.59736 0.873633 -11.2445 -26.7958 0.00487177 14.2739 
-309.43 94.8542 27.046 92.7438 2.68217 91.3098 -174.939 -0.52225 90.425 -7.9749 12.8693 2.41581 58.5896 2.49378 10.1579 37.9752 -1.08914 1.6552 174.287 4.76741 88.3843 -18.543 8.09472 0.544347 62.483 6.84353 17.8158 25.4759 0.640432 1.33885 -0.365913 7.29783 -90.1948 12.2773 -0.819524 -0.296632 0.606578 -0.831779 -0.260281 -21.9299 -0.692484 -0.529224 -1.91723 -0.692469 -0.529228 102.965 -51.0288 -80.936 32.6067 -11.5557 -5.54179 -4.38796 -23.4127 -20.1469 -15.938 -1.08773 2.79204 -80.2334 -49.3058 93.2044 -34.6377 2.76765 -14.4506 7.2857 39.0378 -15.0844 7.5165 0.32529 0.0730081 4.7785 0.702596 -11.5659 -27.0714 -0.262776 14.9269 
